<?xml version="1.0" ?><svg height="512px" id="Layer_1" style="enable-background:new 0 0 512 512;" version="1.1" viewBox="0 0 512 512" width="512px" xml:space="preserve" xmlns="http://www.w3.org/2000/svg" xmlns:cc="http://creativecommons.org/ns#" xmlns:dc="http://purl.org/dc/elements/1.1/" xmlns:inkscape="http://www.inkscape.org/namespaces/inkscape" xmlns:rdf="http://www.w3.org/1999/02/22-rdf-syntax-ns#" xmlns:sodipodi="http://sodipodi.sourceforge.net/DTD/sodipodi-0.dtd" xmlns:svg="http://www.w3.org/2000/svg"><defs id="defs19"/><g id="g3021"/><g id="Layer_1_1_"/><g id="g2990"><rect height="512" id="rect2989" rx="70" ry="70" style="fill:#3c599b;fill-opacity:1;stroke:none" transform="scale(-1,-1)" width="512" x="-512" y="-512"/><g id="g2986" transform="matrix(1.2519232,0,0,1.2519232,-1098.5809,-292.34236)"><path d="m 1146.9533,388.74107 h -44.2416 v -29.01601 c 0,-10.89692 7.2221,-13.4374 12.3089,-13.4374 5.0752,0 31.2208,0 31.2208,0 v -47.90477 l -42.9973,-0.16782 c -47.7312,0 -58.5934,35.72891 -58.5934,58.59334 v 31.93266 h -27.604 v 49.36309 h 27.604 c 0,63.35027 0,139.68077 0,139.68077 h 58.061 c 0,0 0,-77.08281 0,-139.68077 h 39.178 l 5.0636,-49.36309 z" id="path2989" style="fill:#ffffff"/></g></g></svg>