<?xml version="1.0" ?><svg height="512px" id="Layer_1" style="enable-background:new 0 0 512 512;" version="1.1" viewBox="0 0 512 512" width="512px" xml:space="preserve" xmlns="http://www.w3.org/2000/svg" xmlns:cc="http://creativecommons.org/ns#" xmlns:dc="http://purl.org/dc/elements/1.1/" xmlns:inkscape="http://www.inkscape.org/namespaces/inkscape" xmlns:rdf="http://www.w3.org/1999/02/22-rdf-syntax-ns#" xmlns:sodipodi="http://sodipodi.sourceforge.net/DTD/sodipodi-0.dtd" xmlns:svg="http://www.w3.org/2000/svg"><defs id="defs19"/><g id="g3021"/><g id="Layer_1_1_"/><g id="Layer_1_1_-7" transform="translate(-819.672,-61.929991)"/><g id="g2991"><rect height="512" id="rect2989" rx="70" ry="70" style="fill:#cb2027;fill-opacity:1;stroke:none" transform="scale(-1,-1)" width="512" x="-512" y="-512"/><g id="g3121" transform="matrix(1.0226164,0,0,1.0226164,-396.25594,-44.456314)"><path d="m 645.85601,122.6817 c -93.402,0 -140.5,66.963 -140.5,122.815 0,33.812 12.796,63.89 40.25,75.089 4.505,1.858 8.54,0.065 9.849,-4.916 0.906,-3.438 3.055,-12.139 4.015,-15.777 1.31,-4.928 0.799,-6.646 -2.833,-10.957 -7.916,-9.332 -12.985,-21.416 -12.985,-38.551 0,-49.677 37.175,-94.154 96.794,-94.154 52.797,0 81.801,32.26 81.801,75.329 0,56.692 -25.089,104.534 -62.325,104.534 -20.563,0 -35.953,-16.999 -31.031,-37.865 5.908,-24.908 17.355,-51.777 17.355,-69.771 0,-16.087 -8.646,-29.507 -26.513,-29.507 -21.021,0 -37.913,21.752 -37.913,50.884 0,18.558 6.271,31.112 6.271,31.112 0,0 -21.518,91.16 -25.291,107.125 -7.506,31.798 -1.128,70.766 -0.584,74.692 0.315,2.343 3.317,2.907 4.68,1.142 1.927,-2.53 26.983,-33.441 35.482,-64.34 2.417,-8.739 13.831,-54.032 13.831,-54.032 6.835,13.038 26.794,24.491 48.024,24.491 63.19,0 106.072,-57.604 106.072,-134.719 0.006,-58.317 -49.387,-112.624 -124.449,-112.624 z" id="path3131" style="fill:#ffffff"/></g></g></svg>